<?xml version="1.0" standalone="no"?>
<svg version="1.0" xmlns="http://www.w3.org/2000/svg"
 width="900.000000pt" height="791.000000pt" viewBox="0 0 900.000000 791.000000"
 preserveAspectRatio="xMidYMid meet">

<g transform="translate(0.000000,791.000000) scale(0.100000,-0.100000)"
fill="#000000" stroke="none">
<path d="M3781 6212 c-6 -11 -10 -136 -11 -302 0 -211 -3 -286 -12 -291 -7 -5
-100 -8 -208 -7 -107 0 -239 0 -292 -1 l-98 -1 0 -385 0 -385 88 -2 c48 -1
170 -1 272 1 102 2 200 0 218 -3 l32 -8 0 -289 c0 -181 4 -298 10 -310 10 -18
25 -19 395 -19 212 0 385 3 386 8 0 4 1 141 2 304 2 163 6 300 10 304 4 5 139
9 300 11 161 2 297 5 302 7 11 4 15 749 4 760 -3 3 -139 6 -302 7 -268 0 -298
2 -306 17 -5 9 -9 145 -10 301 -1 155 -4 287 -7 292 -3 5 -171 9 -384 9 -358
0 -380 -1 -389 -18z"/>
<path d="M1068 5937 c-405 -748 -550 -1641 -408 -2507 59 -358 176 -726 340
-1067 134 -278 276 -510 450 -733 445 -572 1073 -1018 1760 -1250 414 -140
781 -200 1226 -200 430 0 823 65 1233 205 230 78 291 109 391 197 354 312 697
787 904 1253 107 243 217 600 260 847 45 261 55 397 52 713 -3 292 -10 377
-49 605 l-13 75 -13 -75 c-56 -323 -139 -594 -272 -887 -73 -161 -74 -163
-183 -348 -226 -386 -557 -760 -922 -1044 -99 -77 -332 -229 -453 -297 -91
-50 -116 -59 -195 -71 -131 -19 -553 -28 -721 -14 -708 56 -1414 349 -1992
825 -131 108 -369 346 -480 478 -464 555 -777 1252 -883 1963 -68 454 -61 883
21 1334 11 62 19 115 17 117 -2 2 -34 -52 -70 -119z"/>
<path d="M2570 4577 c-30 -16 -51 -37 -67 -67 l-23 -43 0 -496 c0 -297 4 -522
11 -561 20 -126 68 -195 303 -443 336 -355 433 -462 452 -498 11 -22 19 -64
22 -121 l4 -86 152 -6 c179 -8 446 -4 464 7 16 10 17 327 1 413 -20 112 -39
135 -444 542 -209 211 -398 397 -419 413 -104 78 -248 -14 -215 -136 7 -25 52
-81 147 -183 229 -246 258 -279 290 -339 26 -50 37 -95 33 -140 -1 -9 -18 -13
-50 -13 l-48 0 -21 58 c-18 49 -49 88 -194 248 -283 311 -278 304 -278 407 1
82 25 133 89 187 l51 43 0 350 c0 329 -1 353 -20 391 -42 89 -150 121 -240 73z"/>
<path d="M5605 4580 c-22 -11 -51 -36 -65 -57 l-25 -37 -3 -358 -3 -359 32
-27 c53 -45 76 -71 94 -108 22 -46 22 -151 1 -195 -19 -39 -129 -169 -300
-354 -115 -124 -139 -158 -166 -232 -12 -32 -15 -33 -67 -33 l-54 0 7 48 c13
98 47 145 276 391 97 103 183 202 192 220 54 103 -80 222 -187 167 -38 -21
-760 -738 -813 -810 -64 -85 -73 -127 -76 -363 -1 -111 1 -205 4 -208 7 -8
422 -13 534 -7 l81 4 6 84 c8 128 3 122 417 560 262 276 292 313 336 414 l29
65 3 540 3 540 -24 45 c-43 81 -147 113 -232 70z"/>
</g>
</svg>
